/* XPM */
const char * fileexport5_xpm[] = {
"20 20 5 1",
" 	c None",
".	c #000000",
"+	c #6590A8",
"@	c #21E63E",
"#	c #EF6B6A",
"      ........      ",
"      .++++++.      ",
"      .++++++.      ",
"      .++++++.      ",
"      .++++++.      ",
"      .++++++.      ",
"      .++++++.      ",
"      ........      ",
"                    ",
" .........          ",
" .@@@@@@@. .........",
" .@@@@@@@. .#######.",
" .@@@@@@@. .#######.",
" .@@@@@@@. .#######.",
" .@@@@@@@. .#######.",
" .@@@@@@@. .#######.",
" .@@@@@@@. .#######.",
" .@@@@@@@. .#######.",
" ......... .#######.",
"           ........."};
