/* XPM */
const char * filecomment2_xpm[] = {
"20 20 6 1",
" 	c None",
".	c #000000",
"+	c #202020",
"@	c #808080",
"#	c #404040",
"$	c #FFFFFF",
"                    ",
"    ..............  ",
"   +@@@@@@@@@@@@.#. ",
"  .#$$$$$$$$$$$.@@#.",
"  .#$$.$$$...$$..@#.",
"  .#$.$.$$$.$$$. .. ",
"  .#$.$.$$$.$$$.    ",
"  .#$$.@$$$.$$$.    ",
"   .#$$$$$$$$$$$.   ",
"   .#$$$$$$$$$$$.   ",
"   .#$$$$$$$$$$$.   ",
"   .#$$$$$$$$$$$.   ",
"    .#$.$$$$$$$$$.  ",
"    .#...$.$..$.$.  ",
"    .#$.$.$..$.$..  ",
" .. .#$.$$.$..$.$.  ",
".#@..#$$$$$$.$$$$.  ",
".#@@.#$$$$$$$$$$$.  ",
" .#.############.   ",
"  ..............    "};
