/* XPM */
const char * filehelp_xpm[] = {
"20 20 4 1",
" 	g None",
".	g #000000",
"+	g #FFFFFF",
"@	g #2A2A2A",
"       ......       ",
"      .++++++.      ",
"     .++++++++.     ",
"    .+++@...+++.    ",
"    .++.    .++.    ",
"    .++.    .++.    ",
"    ....    .++.    ",
"            .++.    ",
"           .+++.    ",
"          .+++.     ",
"         .+++.      ",
"        .+++.       ",
"        .++.        ",
"        .++.        ",
"        ....        ",
"                    ",
"        ....        ",
"        .++.        ",
"        .++.        ",
"        ....        "};
