/* XPM */
const char * fileundo2_xpm[] = {
"20 20 4 1",
" 	c None",
".	c #000000",
"+	c #1E0D09",
"@	c #FFFFFF",
"        .....       ",
"   +   .@@@@@..     ",
"   ++ +@@@@@@@@.    ",
"   +@.@@@...@@@@.   ",
"   +@@@@.   ..@@@.  ",
"   +@@@+      .@@@. ",
"   +@@@@.      .@@. ",
"   .......     .@@@.",
"                .@@.",
"                .@@.",
"                .@@.",
"                .@@.",
"               .@@@.",
"    .          .@@. ",
"   .@.        .@@@. ",
"  .@@@..    ..@@@.  ",
"   .@@@@....@@@@.   ",
"    .@@@@@@@@@@.    ",
"     ..@@@@@@..     ",
"       ......       "};
