/* XPM */
const char * filedata3_xpm[] = {
"20 20 7 1",
" 	c None",
".	c #000000",
"+	c #FFFC00",
"@	c #949494",
"#	c #FFFFFF",
"$	c #FF0000",
"%	c #725143",
"           .........",
"         ..+@#@.@@+.",
"       ..+@@@@. +...",
"     ..++.++.++..$$.",
"   ..++@++@++..$$$..",
" ..++@+++@+..$$$..  ",
"...........$$$..    ",
".$$$$$$$$$.$..      ",
".$$$$$$$$$..        ",
"...........         ",
"    %%%             ",
"    %%%       +     ",
"    %%%    +  +  +  ",
"    %%%     + + +   ",
"    %%%%%%%%%+++    ",
"    %%%%%%+++++++++ ",
"    %%%%%%%%%+++    ",
"            + + +   ",
"           +  +  +  ",
"              +     "};
