/* XPM */
const char * filetoggle2_xpm[] = {
"20 20 5 1",
" 	c None",
".	c #000000",
"+	c #FFFFFF",
"@	c #FF0000",
"#	c #949494",
"    .............   ",
"   .+++++++++++++.  ",
"  .++...........++. ",
" .++.           .+. ",
" .+.            .+. ",
" .+.  .         .+. ",
" .++...      ...++. ",
"  .+++.      .+++.  ",
"   .++.      ....   ",
"  .+++.             ",
" ......    .........",
"         ..@######@.",
"       ..@##### @...",
"     ..@@.@@.@@..@@.",
"   ..@@#@@#@@..@@@..",
" ..@@#@@@#@..@@@..  ",
"...........@@@..    ",
".@@@@@@@@@.@..      ",
".@@@@@@@@@..        ",
"...........         "};
