/* XPM */
const char * fileexport2_xpm[] = {
"20 20 7 1",
" 	c None",
".	c #1E0D09",
"+	c #C8C8C8",
"@	c #3D3D3D",
"#	c #FFFFFF",
"$	c #C0C0C0",
"%	c #808080",
"                    ",
"                    ",
"                    ",
"                    ",
"    .   .  .        ",
"   .+@  . .     .   ",
"  .#+#@ .@.  ...$.  ",
" .#####@%#%..###$#. ",
".$.@#$###@######$##.",
"    @$###@#####$#@. ",
"     @@@######@@@   ",
"        ..###.      ",
"          .###.     ",
"         .#####.    ",
"          .....     ",
"                    ",
"                    ",
"                    ",
"                    ",
"                    "};
