/* XPM */
const char * filepit_xpm[] = {
"11 7 2 1",
" 	g None",
".	g #000000",
"     .     ",
"     .     ",
"     .     ",
"     .     ",
"     .     ",
"     .     ",
"..........."};
