/* XPM */
const char * fileexport4_xpm[] = {
"20 20 5 1",
" 	c None",
".	c #000000",
"+	c #FFFFFF",
"@	c #A1A1A1",
"#	c #676767",
"            ...     ",
"           .+++..   ",
"          .+...++.  ",
"         .+.+++.+.  ",
"        .+.+++++.+. ",
"       .++.++++..+. ",
"      .+++.+++++.+..",
"     .+++++.+.+.+.@.",
"     .++++++...+.@@.",
"     .+++++++++.@@@.",
"    .#.+++++++.@@@. ",
"    .#.++++++.@@@.  ",
"    .##..+++.@@@.   ",
"  .. .###...@@@.    ",
" . .  .####.@@.     ",
". .    ..##.@.      ",
".  ..    ....       ",
" .   ..             ",
"  ..   ..           ",
"    ...             "};
