/* XPM */
const char * filesaveoff2_xpm[] = {
"20 20 4 1",
" 	c None",
".	c #6C6C6C",
"+	c #C8C8C8",
"@	c #C0C0C0",
"                    ",
" .................. ",
" .++.++++++++++.@.. ",
" .++.++++++++++.@.. ",
" .++.++++++++++.... ",
" .++.++++++++++.+.. ",
" .++.++++++++++.+.. ",
" .++.++++++++++.+.. ",
" .++.++++++++++.+.. ",
" .++.++++++++++.+.. ",
" .++............+.. ",
" .+++++++++++++++.. ",
" .+++...........+.. ",
" .+++...........+.. ",
" .+++.......+++.+.. ",
" .+++.......+++.+.. ",
" .+++.......+++.+.. ",
"  ................. ",
"  ................. ",
"                    "};
