/* XPM */
const char * fileexportoff3_xpm[] = {
"20 20 5 1",
" 	c None",
".	c #000000",
"+	c #CFCFCF",
"@	c #A1A1A1",
"#	c #676767",
"                    ",
"                    ",
"                    ",
"    .............   ",
"   .+++++++++++++.  ",
"  .+++++.....+++++. ",
"  .++++.+.@.@.++++. ",
" .++++.+@@@.@@.++++.",
" .++++..@@.@@..++++.",
" .++++.@@#@@@@.++++.",
" ..++++.@#@.@.++++..",
" ..+++++.....+++++..",
" ...+++++++++++++.#.",
" .................#.",
" ....############+#.",
"  ...############+. ",
"  ...############+. ",
"   ...............  ",
"                    ",
"                    "};
