/* XPM */
const char * filecollapse2_xpm[] = {
"20 20 3 1",
" 	c None",
".	c #1E0D09",
"+	c #FFFFFF",
"                    ",
"                    ",
"         .          ",
"         .          ",
"         .          ",
"         .          ",
"         .          ",
"         .          ",
"         .          ",
"      .  .  .       ",
"       . . .        ",
"        ...         ",
"         .          ",
"+++++++++++++++++   ",
"..................  ",
"+++++++++++++++++++ ",
"................... ",
"++++++++++++++++++++",
"....................",
"                    "};
