/* XPM */
const char * fileundooff2_xpm[] = {
"20 20 3 1",
" 	c None",
".	c #6C6C6C",
"+	c #C8C8C8",
"        .....       ",
"   .   .+++++..     ",
"   .. .++++++++.    ",
"   .+.+++...++++.   ",
"   .++++.   ..+++.  ",
"   .+++.      .+++. ",
"   .++++.      .++. ",
"   .......     .+++.",
"                .++.",
"                .++.",
"                .++.",
"                .++.",
"               .+++.",
"    .          .++. ",
"   .+.        .+++. ",
"  .+++..    ..+++.  ",
"   .++++....++++.   ",
"    .++++++++++.    ",
"     ..++++++..     ",
"       ......       "};
