/* XPM */
const char * filenewoff2_xpm[] = {
"20 20 8 1",
" 	c None",
".	c #6C6C6C",
"+	c #808080",
"@	c #C8C8C8",
"#	c #838383",
"$	c #CFCFCF",
"%	c #BFBFBF",
"&	c #5F5F5F",
"                    ",
"   .........        ",
"  ..+++++++..       ",
"  .+@@@@@@@+..      ",
"  .+@@@@@@@++#.     ",
"  .+@@@@@@@+....    ",
"  .+@@@@@@@$%%%.    ",
"  .+@@@@@@@@@@@.    ",
"  .+@@@@@@@@@@@.    ",
"  .+@@@@@@@@@@@.    ",
"  .+@@@@@@@@@@@.    ",
"  .+@@@@@@@@@@@.    ",
"  .+@@@@@@@@@@@.    ",
"  .+@@@@@@@@@@@.    ",
"  .+@@@@@@@@@@@.    ",
"  .+@@@@@@@@@@@.    ",
"  .&+++++++++++.    ",
"   .............    ",
"                    ",
"                    "};
