/* XPM */
const char * filecoveroff2_xpm[] = {
"20 20 8 1",
" 	c None",
".	c #000000",
"+	c #0F0000",
"@	c #2A2A2A",
"#	c #515151",
"$	c #8B8B8B",
"%	c #CCCCCC",
"&	c #A6A6A6",
"                    ",
"                    ",
"                    ",
"                    ",
"       ......       ",
"    .....+@#$$#@    ",
"  .......#%%%%%%#.  ",
" ........$%%%%%%&.. ",
".........#$&&%%%$...",
"...........@$%%%@...",
"............#$&#....",
" .................. ",
"  ................  ",
"    ............    ",
"       ......       ",
"                    ",
"                    ",
"                    ",
"                    ",
"                    "};
