/* XPM */
const char * fileextended2_xpm[] = {
"20 20 4 1",
" 	c None",
".	c #1E0D09",
"+	c #FFFFFF",
"@	c #6C6C6C",
"..                  ",
"++..                ",
"++++...             ",
"+++++++...@@@@@@@@@@",
".+++++++++.         ",
" ...++++++.         ",
"    ...+++.         ",
"      .+++.         ",
"@@@@@@@.+++.@@@@@@@@",
"       .+++.        ",
"       .+++.        ",
"       .+++.        ",
"       .+++.        ",
"@@@@@@@.+++.@@@@@@@@",
"       .+++...      ",
"       .++++++..... ",
"       .+++++++++++.",
"        .+++++++++++",
"@@@@@@@@@......+++++",
"               ....."};
