/* XPM */
const char * fileclose_xpm[] = {
"20 20 2 1",
" 	c None",
".	c #FFB000",
"                    ",
"   .                ",
"  ...            .  ",
" .....          ... ",
"  .....        .....",
"   .....      ..... ",
"    .....    .....  ",
"     .....  .....   ",
"      ..........    ",
"       ........     ",
"        ......      ",
"        ......      ",
"       ........     ",
"      ..........    ",
"     ...... .....   ",
"    .....    .....  ",
"   .....      ..... ",
"  .....        .....",
"   ...          ... ",
"    .            .  "};
