/* XPM */
const char * filemode2_xpm[] = {
"20 20 6 1",
" 	c None",
".	c #1E0D09",
"+	c #FFFFFF",
"@	c #808080",
"#	c #000000",
"$	c #C8C8C8",
"                    ",
"....  ....  ....    ",
".++@. .+@@. .+@+.   ",
".+@++..+@@+..+@++.  ",
"#++@++.+@+++.+@@++. ",
"#............$$$$$.#",
"#++++++++++++++++++#",
"#++++++++++++++++++#",
"#+++++++++..+++++++#",
"#++++++++.$@.++++++#",
"#++++++++.$@.++++++#",
"#+++++++.$@.+++++++#",
"#+++++++.$@.+++++++#",
"#++++++.$@.++++++++#",
"#++++++.$$.++++++++#",
"#++++++...+++++++++#",
"#++++++++++++++++++#",
"#++++++++++++++++++.",
"#...................",
"                    "};
