/* XPM */
const char * filenew2_xpm[] = {
"20 20 11 1",
" 	g None",
".	g #000000",
"+	g #202020",
"@	g #808080",
"#	g #404040",
"$	g #FFFFFF",
"%	g #080808",
"&	g #838383",
"*	g #CFCFCF",
"=	g #BFBFBF",
"-	g #101010",
"                    ",
"   .........        ",
"  .+@@@@@@@+.       ",
"  .#$$$$$$$#+%      ",
"  .#$$$$$$$#@&.     ",
"  .#$$$$$$$#....    ",
"  .#$$$$$$$*===.    ",
"  .#$$$$$$$$$$$.    ",
"  .#$$$$$$$$$$$.    ",
"  .#$$$$$$$$$$$.    ",
"  .#$$$$$$$$$$$.    ",
"  .#$$$$$$$$$$$.    ",
"  .#$$$$$$$$$$$.    ",
"  .#$$$$$$$$$$$.    ",
"  .#$$$$$$$$$$$.    ",
"  .#$$$$$$$$$$$.    ",
"  .-###########.    ",
"   .............    ",
"                    ",
"                    "};
