/* XPM */
const char * fileexportoff2_xpm[] = {
"20 20 4 1",
" 	c None",
".	c #6C6C6C",
"+	c #808080",
"@	c #C8C8C8",
"                    ",
"                    ",
"                    ",
"                    ",
"    .   .  .        ",
"   .++  . .     .   ",
"  .@+@+ .+.  ...+.  ",
" .@@@@@++@+..@@@+@. ",
".+.+@+@@@+@@@@@@+@@.",
"    ++@@@+@@@@@+@+. ",
"     +++@@@@@@+++   ",
"        ..@@@.      ",
"          .@@@.     ",
"         .@@@@@.    ",
"          .....     ",
"                    ",
"                    ",
"                    ",
"                    ",
"                    "};
