/* XPM */
const char * fileexportoff5_xpm[] = {
"20 20 3 1",
" 	c None",
".	c #000000",
"+	c #B4B4B4",
"      ........      ",
"      .++++++.      ",
"      .++++++.      ",
"      .++++++.      ",
"      .++++++.      ",
"      .++++++.      ",
"      .++++++.      ",
"      ........      ",
"                    ",
" .........          ",
" .+++++++. .........",
" .+++++++. .+++++++.",
" .+++++++. .+++++++.",
" .+++++++. .+++++++.",
" .+++++++. .+++++++.",
" .+++++++. .+++++++.",
" .+++++++. .+++++++.",
" .+++++++. .+++++++.",
" ......... .+++++++.",
"           ........."};
