/* XPM */
const char * fileoptions2_xpm[] = {
"20 20 6 1",
" 	c None",
".	c #000000",
"+	c #FFFFFF",
"@	c #A6A6A6",
"#	c #1E0D09",
"$	c #CCCCCC",
"    ..              ",
"   .++.           . ",
" .   ++.         ...",
".@   ++.        ... ",
".@  +++.        ..  ",
".@+++++#       .    ",
"..@@@+.+.     .     ",
"  ....@++.   .      ",
"      .@++. .       ",
"       .@++.        ",
"        ...+.       ",
"       .+$.++.      ",
"      .+$+.@++.     ",
"     .+$+. .@++.    ",
"    .+$+.   .@++.   ",
"   .+$+.     .@++.  ",
"  .+$+.       .@++. ",
"  .$+.         .@++.",
"  ...           .@+.",
"                 .. "};
