/* XPM */
const char * logo6_32_xpm[] = {
"32 32 256 2",
"  	c #C40007",
". 	c #C50108",
"+ 	c #CE0000",
"@ 	c #D00000",
"# 	c #CF0004",
"$ 	c #D10000",
"% 	c #D70000",
"& 	c #DB0002",
"* 	c #D20307",
"= 	c #C80700",
"- 	c #E40000",
"; 	c #A21414",
"> 	c #8A1B1B",
", 	c #EA0202",
"' 	c #F40000",
") 	c #841F1E",
"! 	c #FB0002",
"~ 	c #EA040E",
"{ 	c #B71311",
"] 	c #FD0005",
"^ 	c #FF0000",
"/ 	c #FF0006",
"( 	c #CC110D",
"_ 	c #E00C11",
": 	c #563230",
"< 	c #F7070D",
"[ 	c #ED0C05",
"} 	c #4E3736",
"| 	c #4F3737",
"1 	c #403C3A",
"2 	c #952622",
"3 	c #3C3E3B",
"4 	c #E21113",
"5 	c #D8141C",
"6 	c #3D3F3C",
"7 	c #EE1011",
"8 	c #3F403E",
"9 	c #C71C1B",
"0 	c #40423F",
"a 	c #DB1817",
"b 	c #D21C21",
"c 	c #D31E1B",
"d 	c #434542",
"e 	c #E61916",
"f 	c #CA2124",
"g 	c #444643",
"h 	c #46463E",
"i 	c #454744",
"j 	c #464845",
"k 	c #474946",
"l 	c #494A48",
"m 	c #4A4C49",
"n 	c #E12329",
"o 	c #B23233",
"p 	c #4C4E4B",
"q 	c #C12E33",
"r 	c #EC2329",
"s 	c #DA282D",
"t 	c #E3262B",
"u 	c #F72220",
"v 	c #D22C30",
"w 	c #4F514E",
"x 	c #BE3534",
"y 	c #B83737",
"z 	c #DE2D2F",
"A 	c #525451",
"B 	c #B33B3B",
"C 	c #5B553E",
"D 	c #545553",
"E 	c #C23836",
"F 	c #595649",
"G 	c #D13537",
"H 	c #555754",
"I 	c #CB383A",
"J 	c #DB3536",
"K 	c #7D4F50",
"L 	c #C63C39",
"M 	c #615A44",
"N 	c #5A5C59",
"O 	c #5E5E56",
"P 	c #686133",
"Q 	c #6D6034",
"R 	c #D44141",
"S 	c #5F615E",
"T 	c #BA4949",
"U 	c #626461",
"V 	c #995658",
"W 	c #FF3B3C",
"X 	c #656664",
"Y 	c #706465",
"Z 	c #A75558",
"` 	c #73692F",
" .	c #BA5152",
"..	c #676866",
"+.	c #DE4A48",
"@.	c #686A67",
"#.	c #9B5E5D",
"$.	c #EE4849",
"%.	c #6D6C64",
"&.	c #6B6D6A",
"*.	c #D35151",
"=.	c #7F6F36",
"-.	c #996365",
";.	c #80732C",
">.	c #867226",
",.	c #C15E61",
"'.	c #727471",
").	c #7A7651",
"!.	c #8F6D6E",
"~.	c #857729",
"{.	c #747673",
"].	c #90783A",
"^.	c #BB6769",
"/.	c #887678",
"(.	c #797B78",
"_.	c #7B7C7A",
":.	c #BA6C6A",
"<.	c #918024",
"[.	c #7E7F7D",
"}.	c #B67072",
"|.	c #B37373",
"1.	c #958428",
"2.	c #B07773",
"3.	c #828481",
"4.	c #C27371",
"5.	c #858784",
"6.	c #E57072",
"7.	c #B4826A",
"8.	c #8A8C89",
"9.	c #A78485",
"0.	c #9C8E46",
"a.	c #978E5E",
"b.	c #8C8E8B",
"c.	c #F67173",
"d.	c #A69227",
"e.	c #8E908D",
"f.	c #AD921F",
"g.	c #A08D8F",
"h.	c #929491",
"i.	c #B19624",
"j.	c #9D9191",
"k.	c #9C9795",
"l.	c #979996",
"m.	c #989A97",
"n.	c #9A9B98",
"o.	c #BB9E23",
"p.	c #9B9D99",
"q.	c #A5A09F",
"r.	c #A0A29F",
"s.	c #AAA289",
"t.	c #C6A616",
"u.	c #A2A4A1",
"v.	c #B9A650",
"w.	c #C8A819",
"x.	c #B0A4A4",
"y.	c #CAAA1D",
"z.	c #C1AB48",
"A.	c #D29E9D",
"B.	c #F09697",
"C.	c #CDA09D",
"D.	c #A8AAA7",
"E.	c #EB9895",
"F.	c #CAAC33",
"G.	c #D4AD15",
"H.	c #D3B101",
"I.	c #B2AC98",
"J.	c #ABADAA",
"K.	c #ADAFAC",
"L.	c #D7B50D",
"M.	c #D9B60F",
"N.	c #B2B4B1",
"O.	c #DBB814",
"P.	c #F6A2A0",
"Q.	c #B3B5B2",
"R.	c #DFBB02",
"S.	c #B4B6B3",
"T.	c #CEB95C",
"U.	c #B6B8B5",
"V.	c #E2BD09",
"W.	c #B8BAB7",
"X.	c #BABCB9",
"Y.	c #F2ADAC",
"Z.	c #E6C112",
"`.	c #BDBFBC",
" +	c #E8C316",
".+	c #D7C15C",
"++	c #EBC500",
"@+	c #DBC24F",
"#+	c #BEC1BD",
"$+	c #EAC51A",
"%+	c #EDC707",
"&+	c #E0C542",
"*+	c #C0C2BE",
"=+	c #E9C533",
"-+	c #ECC71E",
";+	c #C2C4C1",
">+	c #CCC59E",
",+	c #F0C90E",
"'+	c #EFC921",
")+	c #DCC76F",
"!+	c #E2C855",
"~+	c #C4C6C3",
"{+	c #E1C85C",
"]+	c #F2CB13",
"^+	c #D1C89B",
"/+	c #F1CB24",
"(+	c #C5C8C4",
"_+	c #C7C9C6",
":+	c #CAC9C0",
"<+	c #C9CBC8",
"[+	c #F1D135",
"}+	c #E5C7C6",
"|+	c #CDCFCB",
"1+	c #D0D2CF",
"2+	c #F8C9C6",
"3+	c #E3D7B7",
"4+	c #D7D9D6",
"5+	c #F7DC68",
"6+	c #D9DBD7",
"7+	c #F7DD70",
"8+	c #DBDDDA",
"9+	c #F7E080",
"0+	c #DDDFDC",
"a+	c #EFE0A0",
"b+	c #DFE1DE",
"c+	c #FAE48A",
"d+	c #E1E4E0",
"e+	c #F9E699",
"f+	c #EAE4E3",
"g+	c #EDE6D1",
"h+	c #E5E7E4",
"i+	c #E7E9E6",
"j+	c #F8E4E6",
"k+	c #E9EBE8",
"l+	c #FAECB2",
"m+	c #EAECE9",
"n+	c #F9EEB9",
"o+	c #ECEEEB",
"p+	c #F8EBEC",
"q+	c #EEF0ED",
"r+	c #F0F2EF",
"s+	c #F1F3F0",
"t+	c #F2F4F1",
"u+	c #F3F5F2",
"v+	c #FBF6D3",
"w+	c #FAF5F3",
"x+	c #FFF7DC",
"y+	c #F6F8F4",
"z+	c #FFF8E3",
"A+	c #F7F9F6",
"B+	c #F8FAF7",
"C+	c #F9FBF8",
"D+	c #FDFCF3",
"E+	c #FBFDFA",
"F+	c #FCFFFB",
"G+	c #FEFFFC",
"G+G+G+G+G+G+G+G+G+G+G+G+G+B+6+0+C+G+G+G+G+G+G+G+G+G+G+G+G+G+G+G+",
"G+G+G+G+G+G+G+G+G+G+G+B+e.g 3 3 j h.y+G+G+G+G+G+G+G+G+G+G+G+G+G+",
"G+G+G+G+G+G+G+G+G+G+G+[.3 3 3 3 H N @.E+G+G+G+G+G+G+G+G+G+G+G+G+",
"G+G+G+G+G+G+G+G+G+G+h+3 3 3 3 3 8 3 3 U.G+G+G+G+G+G+G+G+G+G+G+G+",
"G+G+G+G+G+G+G+G+G+G+_+3 3 3 3 3 8 i 3 &.G+G+G+G+G+G+G+G+G+G+G+G+",
"G+G+G+G+G+G+G+G+G+G+~+D D.A 6 r.<+U 3 p G+G+G+G+G+G+G+G+G+G+G+G+",
"G+G+G+G+G+G+G+G+G+G+|+_.b.n.H X.3.Q.3 3 G+G+G+G+G+G+G+G+G+G+G+G+",
"G+G+G+G+G+G+G+G+G+G+4+&.F z.d.a.i W.3 3 C+G+G+G+G+G+G+G+G+G+G+G+",
"G+G+G+G+G+G+G+G+G+G+i+M '+,+,+,+-+0.3 3 b+G+G+G+G+G+G+G+G+G+G+G+",
"G+G+G+G+G+G+G+G+G+G+m+>.%+,+,+V.M.i.d 6 *+G+G+G+G+G+G+G+G+G+G+G+",
"G+G+G+G+G+G+G+G+G+G+y+%.F.G.H.V.!+I.w n...G+G+G+G+G+G+G+G+G+G+G+",
"G+G+G+G+G+G+G+G+G+G+;+(.:+{+!+^+b+s+X 0 1 x.#+h+G+G+G+G+G+G+G+G+",
"G+G+G+G+G+G+G+G+G+m+p ~+o+_+1+k+A+A+~+| ( / J :.q.(+s+G+G+G+G+G+",
"G+G+G+G+G+G+G+G+E+'.[.A+A+s+A+A+A+A+2+G g.}.J / < Z n.G+G+G+G+G+",
"G+G+G+G+G+G+G+G+n.3 J.m+y+d+t+A+i+B.*.n.l.l.k.R - . Y s+G+G+G+G+",
"G+G+G+G+G+G+G+q+0 m 6+u+A+s+A+w+c.^.l.l.l.j.z & @ # A.G+G+G+G+G+",
"G+G+G+G+G+G+G+S.g n.A+A+A+A+j+W ,.l.l.l.9.e % @ * Y.G+G+G+G+G+G+",
"G+G+G+G+G+G+G+@.w k+A+A+A+2+r o 7 t |.2.~ @ @   K G+G+G+G+G+G+G+",
"G+G+G+G+G+G+0+3 5.A+A+A+P.L a v V c ^ , @ @ { } 3 0+G+G+G+G+G+G+",
"G+G+G+G+G+G+{.d K.A+w+c.c E 4 q ~ ^ - @ @ ; 1 3 3 J.G+G+G+G+G+G+",
"G+G+G+G+G+6+3 l `.j+$.n 4._ 4 y [ = > ; ) 1 3 3 3 r.G+G+G+G+G+G+",
"G+G+G+G+G+d+~.=.C.u  .B ' I T ! % : 3 3 3 3 3 6 3 N.G+G+G+G+G+G+",
"G+G+G+G+G+e+,+%+].-.#.5 !.b ' @ @ } 3 3 3 3 k 6 P a+G+G+G+G+G+G+",
"G+G+G+x+e+,+,+,+ +C /.x ! , @ @ s }+u.).<.;.8 Q Z.7+G+G+G+G+G+G+",
"G+G+c+,+,+,+,+,+,+o.3 2 - @ @ +.p+A+i+)+,+,+,+,+,+/+z+G+G+G+G+G+",
"G+G+9+,+,+,+,+,+,+,+` 3 f @ 6.w+A+A+q+T.,+,+,+,+,+,+[+v+G+G+G+G+",
"G+G+c+,+,+,+,+,+,+,+R.7.9 E.A+A+A+t+b.1.,+,+,+,+,+,+,+]+G+G+G+G+",
"G+G+9+,+,+,+,+,+,+,+,+@+f+A+A+o+`.S 3 f.,+,+,+,+,+,+/+l+G+G+G+G+",
"G+G+5+,+,+,+,+,+,+,+,+++h A m 3 3 3 3 t.,+,+,+,+$+c+D+G+G+G+G+G+",
"G+G+E+n+9+&+Z.,+,+,+,+Z.O _.8.8.8.8.(.o.,+,+,+=+g+G+G+G+G+G+G+G+",
"G+G+G+G+G+G+q+3+.+O.y.>+C+G+G+G+G+G+G+s.w.L.v.o+G+G+G+G+G+G+G+G+",
"G+G+G+G+G+G+G+G+G+u+u+G+G+G+G+G+G+G+G+G+r+q+G+G+G+G+G+G+G+G+G+G+"};
