/* XPM */
const char * logo6_16_xpm[] = {
"16 16 126 2",
"  	c #FFFFFF",
". 	c #FEFEFE",
"+ 	c #B3B3B3",
"@ 	c #8D8D8D",
"# 	c #B5B5B5",
"$ 	c #FDFDFD",
"% 	c #A8A8A8",
"& 	c #3D3D3D",
"* 	c #4C4C4C",
"= 	c #979797",
"- 	c #888888",
"; 	c #5D5D5D",
"> 	c #565656",
", 	c #6D6D6D",
"' 	c #4D4D4D",
") 	c #A4A4A4",
"! 	c #918A6D",
"~ 	c #958D67",
"{ 	c #8E8E8E",
"] 	c #AEA88F",
"^ 	c #EFC819",
"/ 	c #EDC514",
"( 	c #C5A829",
"_ 	c #3F3F3F",
": 	c #E8E8E8",
"< 	c #A9A8A6",
"[ 	c #D1BB5A",
"} 	c #DBBF46",
"| 	c #D9D2B1",
"1 	c #656565",
"2 	c #969292",
"3 	c #E9E9E9",
"4 	c #D7D7D7",
"5 	c #A2A2A2",
"6 	c #EBEBEB",
"7 	c #F8F8F8",
"8 	c #B77F7F",
"9 	c #C74545",
"0 	c #DB3636",
"a 	c #C17373",
"b 	c #E3E3E3",
"c 	c #FBFBFB",
"d 	c #5A5A5A",
"e 	c #DADADA",
"f 	c #F1F1F1",
"g 	c #F7F6F6",
"h 	c #E39696",
"i 	c #A78888",
"j 	c #9A9797",
"k 	c #C94343",
"l 	c #D00303",
"m 	c #CDBDBD",
"n 	c #C7C7C7",
"o 	c #878787",
"p 	c #F8ECEC",
"q 	c #E56060",
"r 	c #CA4D4D",
"s 	c #A58787",
"t 	c #D12B2B",
"u 	c #CC0202",
"v 	c #CF8282",
"w 	c #757575",
"x 	c #C9C9C9",
"y 	c #F7D6D6",
"z 	c #D54D4D",
"A 	c #D32323",
"B 	c #D52121",
"C 	c #E50101",
"D 	c #C20505",
"E 	c #613030",
"F 	c #828282",
"G 	c #EFEFEF",
"H 	c #625B3B",
"I 	c #DE9A9A",
"J 	c #CE3F3F",
"K 	c #D73333",
"L 	c #D32525",
"M 	c #B71111",
"N 	c #6A2A2A",
"O 	c #4F3636",
"P 	c #747474",
"Q 	c #FEFDF7",
"R 	c #F8E693",
"S 	c #F0C814",
"T 	c #9A7D3C",
"U 	c #AE4949",
"V 	c #D22323",
"W 	c #D70000",
"X 	c #B64A4A",
"Y 	c #66645B",
"Z 	c #635B35",
"` 	c #4D4A3E",
" .	c #CDB756",
"..	c #F4D54D",
"+.	c #E2BD17",
"@.	c #624234",
"#.	c #D10909",
"$.	c #E26C6C",
"%.	c #F8F5F5",
"&.	c #E0D6A9",
"*.	c #F0C919",
"=.	c #FBEFBD",
"-.	c #F4D54C",
";.	c #D7B23A",
">.	c #E4A3A3",
",.	c #F5F5F5",
"'.	c #C3C3C3",
").	c #837846",
"!.	c #F3D342",
"~.	c #F8E48C",
"{.	c #EECD3B",
"].	c #EEC614",
"^.	c #ECC515",
"/.	c #5D5C58",
"(.	c #686868",
"_.	c #646464",
":.	c #8E7F3E",
"<.	c #EDC71D",
"[.	c #F3E49D",
"}.	c #FFFEFB",
"|.	c #F4F2EA",
"1.	c #EADB9B",
"2.	c #E3D9AD",
"3.	c #E9E8E1",
"4.	c #E0CF86",
"5.	c #EAE4CE",
"          . + @ # $             ",
"          % & & * =             ",
"          - ; > , '             ",
"          ) ! ~ { & .           ",
"          ] ^ / ( _ :           ",
"          < [ } | 1 2 3         ",
"        4 5 : 6 7 8 9 0 a b     ",
"      c d e f g h i j k l m     ",
"      n o 7 p q r s t u v       ",
"      w x y z A B C D E F       ",
"    G H I J K L M N O & P       ",
"  Q R S T U V W X Y Z `  .      ",
"  ..S S +.@.#.$.%.&.S S *.=.    ",
"  -.S S S ;.>.,.'.).S S S !.    ",
"  ~.{.].S ^./.(._.:.S <.[.}.    ",
"      |.1.2..     3.4.5.        "};
