/* XPM */
const char * logo6c_16_xpm[] = {
"16 16 143 2",
"  	c #FFFFFF",
". 	c #FEFEFE",
"+ 	c #B3B3B3",
"@ 	c #8D8D8D",
"# 	c #B5B5B5",
"$ 	c #FDFDFD",
"% 	c #E3E3E3",
"& 	c #A8A8A8",
"* 	c #3D3D3D",
"= 	c #4C4C4C",
"- 	c #979797",
"; 	c #B7B7B7",
"> 	c #B8B8B8",
", 	c #F9F9F9",
"' 	c #888888",
") 	c #5D5D5D",
"! 	c #565656",
"~ 	c #6D6D6D",
"{ 	c #4D4D4D",
"] 	c #E7E7E7",
"^ 	c #6E6E6E",
"/ 	c #BDBDBD",
"( 	c #DADADA",
"_ 	c #A4A4A4",
": 	c #918A6D",
"< 	c #958D67",
"[ 	c #8E8E8E",
"} 	c #EEEEEE",
"| 	c #373737",
"1 	c #CECECE",
"2 	c #DDDDDD",
"3 	c #AEA88F",
"4 	c #EFC819",
"5 	c #EDC514",
"6 	c #C5A829",
"7 	c #3F3F3F",
"8 	c #E8E8E8",
"9 	c #F8F8F8",
"0 	c #0B0B0B",
"a 	c #CFCFCF",
"b 	c #F2F2F2",
"c 	c #A9A8A6",
"d 	c #D1BB5A",
"e 	c #DBBF46",
"f 	c #D9D2B1",
"g 	c #656565",
"h 	c #969292",
"i 	c #E9E9E9",
"j 	c #DEDEDE",
"k 	c #C4C4C4",
"l 	c #F7F7F7",
"m 	c #F0F0F0",
"n 	c #D7D7D7",
"o 	c #A2A2A2",
"p 	c #EBEBEB",
"q 	c #B77F7F",
"r 	c #C74545",
"s 	c #DB3636",
"t 	c #C17373",
"u 	c #FBFBFB",
"v 	c #5A5A5A",
"w 	c #F1F1F1",
"x 	c #F7F6F6",
"y 	c #E39696",
"z 	c #A78888",
"A 	c #9A9797",
"B 	c #C94343",
"C 	c #D00303",
"D 	c #CDBDBD",
"E 	c #C7C7C7",
"F 	c #878787",
"G 	c #F8ECEC",
"H 	c #E56060",
"I 	c #CA4D4D",
"J 	c #A58787",
"K 	c #D12B2B",
"L 	c #CC0202",
"M 	c #CF8282",
"N 	c #757575",
"O 	c #C9C9C9",
"P 	c #F7D6D6",
"Q 	c #D54D4D",
"R 	c #D32323",
"S 	c #D52121",
"T 	c #E50101",
"U 	c #C20505",
"V 	c #613030",
"W 	c #828282",
"X 	c #EFEFEF",
"Y 	c #625B3B",
"Z 	c #DE9A9A",
"` 	c #CE3F3F",
" .	c #D73333",
"..	c #D32525",
"+.	c #B71111",
"@.	c #6A2A2A",
"#.	c #4F3636",
"$.	c #747474",
"%.	c #FEFDF7",
"&.	c #F8E693",
"*.	c #F0C814",
"=.	c #9A7D3C",
"-.	c #AE4949",
";.	c #D22323",
">.	c #D70000",
",.	c #B64A4A",
"'.	c #66645B",
").	c #635B35",
"!.	c #4D4A3E",
"~.	c #CDB756",
"{.	c #F4D54D",
"].	c #E2BD17",
"^.	c #624234",
"/.	c #D10909",
"(.	c #E26C6C",
"_.	c #F8F5F5",
":.	c #E0D6A9",
"<.	c #F0C919",
"[.	c #FBEFBD",
"}.	c #F4D54C",
"|.	c #D7B23A",
"1.	c #E4A3A3",
"2.	c #F5F5F5",
"3.	c #C3C3C3",
"4.	c #837846",
"5.	c #F3D342",
"6.	c #F8E48C",
"7.	c #EECD3B",
"8.	c #EEC614",
"9.	c #ECC515",
"0.	c #5D5C58",
"a.	c #686868",
"b.	c #646464",
"c.	c #8E7F3E",
"d.	c #EDC71D",
"e.	c #F3E49D",
"f.	c #FFFEFB",
"g.	c #F4F2EA",
"h.	c #EADB9B",
"i.	c #E3D9AD",
"j.	c #E9E8E1",
"k.	c #E0CF86",
"l.	c #EAE4CE",
"          . + @ # $       $ %   ",
"          & * * = -     . ; > , ",
"          ' ) ! ~ {     ] ^ / ( ",
"          _ : < [ * .   } | 1 2 ",
"          3 4 5 6 7 8   9 0 a b ",
"          c d e f g h i j k l m ",
"        n o 8 p 9 q r s t %     ",
"      u v ( w x y z A B C D     ",
"      E F 9 G H I J K L M       ",
"      N O P Q R S T U V W       ",
"    X Y Z `  ...+.@.#.* $.      ",
"  %.&.*.=.-.;.>.,.'.).!.~.      ",
"  {.*.*.].^./.(._.:.*.*.<.[.    ",
"  }.*.*.*.|.1.2.3.4.*.*.*.5.    ",
"  6.7.8.*.9.0.a.b.c.*.d.e.f.    ",
"      g.h.i..     j.k.l.        "};
