/* XPM */
const char * fileleft_xpm[] = {
"20 20 3 1",
" 	c None",
".	c #000000",
"+	c #03A2FF",
"                    ",
"                    ",
"                    ",
"        .           ",
"       ..           ",
"      .+.           ",
"     .++.           ",
"    .+++.........   ",
"   .++++++++++++.   ",
"  .+++++++++++++.   ",
"  .+++++++++++++.   ",
"   .++++++++++++.   ",
"    .+++.........   ",
"     .++.           ",
"      .+.           ",
"       ..           ",
"        .           ",
"                    ",
"                    ",
"                    "};
