/* XPM */
const char * filecover2_xpm[] = {
"20 20 24 1",
" 	c None",
".	c #000000",
"+	c #0F0000",
"@	c #2F0000",
"#	c #530000",
"$	c #770101",
"%	c #800101",
"&	c #6F0101",
"*	c #2C0000",
"=	c #570000",
"-	c #AC0101",
";	c #B30202",
">	c #A90101",
",	c #480000",
"'	c #A50101",
")	c #380000",
"!	c #940101",
"~	c #AA0101",
"{	c #8F0101",
"]	c #B00101",
"^	c #3A0000",
"/	c #920101",
"(	c #A80101",
"_	c #520000",
"                    ",
"                    ",
"                    ",
"                    ",
"       ......       ",
"    .....+@#$%&*    ",
"  .......=-;;;;>,.  ",
" ........%;;;;;;'.. ",
".........)!'~;;;{...",
"............{;;]^...",
"............^/(_....",
" .................. ",
"  ................  ",
"    ............    ",
"       ......       ",
"                    ",
"                    ",
"                    ",
"                    ",
"                    "};
