/* XPM */
const char * file3d2_xpm[] = {
"20 20 5 1",
" 	c None",
".	c #000000",
"+	c #1E0D09",
"@	c #FFFFFF",
"#	c #C0C0C0",
"     ...            ",
"       .            ",
"  +@  .             ",
"  +@ .              ",
"  +@ ...            ",
"  +@        . .     ",
"  +@        . .     ",
"  +@         .      ",
"  +@       + .      ",
"  +@     ++#@.      ",
"  +@    +##@@@@     ",
"  +@  ++#@@@@@@@    ",
"  +@ +#@@@@@@@@@@@  ",
"  +@+#@@@@@@@@@@@@@ ",
"  ++#@@@@@@@@@@@@@  ",
"  +++##@@@@@@@.@.   ",
"     ++##@@@@@.@.   ",
"       ++##@@@@.    ",
"         ++##@. .   ",
"           ++ . .   "};
