/* XPM */
const char * fileread2_xpm[] = {
"20 20 5 1",
" 	c None",
".	c #4CAEF3",
"+	c #000000",
"@	c #FF0000",
"#	c #949494",
"         .          ",
"        ...         ",
"       .....        ",
"      .......       ",
"     .........      ",
"        ...         ",
"        ...         ",
"        ...         ",
"        ...         ",
"        ...         ",
"           +++++++++",
"         ++@######@+",
"       ++@##### @+++",
"     ++@@+@@+@@++@@+",
"   ++@@#@@#@@++@@@++",
" ++@@#@@@#@++@@@++  ",
"+++++++++++@@@++    ",
"+@@@@@@@@@+@++      ",
"+@@@@@@@@@++        ",
"+++++++++++         "};
