/* XPM */
const char * filezoomout_xpm[] = {
"20 20 7 1",
" 	c None",
".	c #000000",
"+	c #4CAEF3",
"@	c #1E0D09",
"#	c #FFFFFF",
"$	c #0E222F",
"%	c #0D1E29",
"        ....        ",
"     ...++++...     ",
"    .++++++++++.    ",
"   .++++++++++++.   ",
"  .++++++++++++++.  ",
" .++++++++++++++++. ",
" .++++++++++++++++. ",
" .++++++++++++++++. ",
".+++.....@@.....+++.",
".+++.##########.+++.",
".+++.##########.+++.",
".+++.....@@.....+++.",
" $++++++++++++++++. ",
" .++++++++++++++++. ",
" .++++++++++++++++. ",
"  .++++++++++++++.  ",
"   .++++++++++++.   ",
"    %++++++++++.    ",
"     ...++++...     ",
"        ....        "};
