/* XPM */
const char * filezoomin_xpm[] = {
"20 20 6 1",
" 	c None",
".	c #000000",
"+	c #4CAEF3",
"@	c #FFFFFF",
"#	c #0E222F",
"$	c #0D1E29",
"        ....        ",
"     ...++++...     ",
"    .++++++++++.    ",
"   .++++++++++++.   ",
"  .+++++....+++++.  ",
" .++++++.@@.++++++. ",
" .++++++.@@.++++++. ",
" .++++++.@@.++++++. ",
".+++.....@@.....+++.",
".+++.@@@@@@@@@@.+++.",
".+++.@@@@@@@@@@.+++.",
".+++.....@@.....+++.",
" #++++++.@@.++++++. ",
" .++++++.@@.++++++. ",
" .++++++.@@.++++++. ",
"  .+++++....+++++.  ",
"   .++++++++++++.   ",
"    $++++++++++.    ",
"     ...++++...     ",
"        ....        "};
