/* XPM */
const char * filedata2_xpm[] = {
"20 20 6 1",
" 	c None",
".	c #000000",
"+	c #FF0000",
"@	c #949494",
"#	c #FFFFFF",
"$	c #725143",
"           .........",
"         ..+@#@.@@+.",
"       ..+@@@@. +...",
"     ..++.++.++..++.",
"   ..++@++@++..+++..",
" ..++@+++@+..+++..  ",
"...........+++..    ",
".+++++++++.+..      ",
".+++++++++..        ",
"...........         ",
"    $$$             ",
"    $$$       $     ",
"    $$$       $$    ",
"    $$$       $$$   ",
"    $$$$$$$$$$$$$$  ",
"    $$$$$$$$$$$$$$$ ",
"    $$$$$$$$$$$$$$  ",
"              $$$   ",
"              $$    ",
"              $     "};
