/* XPM */
const char * filewrite2_xpm[] = {
"20 20 5 1",
" 	c None",
".	c #FFB000",
"+	c #000000",
"@	c #FF0000",
"#	c #949494",
"        ...         ",
"        ...         ",
"        ...         ",
"        ...         ",
"        ...         ",
"     .........      ",
"      .......       ",
"       .....        ",
"        ...         ",
"         .          ",
"           +++++++++",
"         ++@######@+",
"       ++@##### @+++",
"     ++@@+@@+@@++@@+",
"   ++@@#@@#@@++@@@++",
" ++@@#@@@#@++@@@++  ",
"+++++++++++@@@++    ",
"+@@@@@@@@@+@++      ",
"+@@@@@@@@@++        ",
"+++++++++++         "};
