/* XPM */
const char * filephip_xpm[] = {
"20 20 5 1",
" 	c None",
".	c #000000",
"+	c #6C6C6C",
"@	c #4CAEF3",
"#	c #FFFFFF",
"       ......       ",
"     ..+@@@.@...    ",
"   ..+@@@@@@.@@+.   ",
"  .+@@@@@@@@.@@@+.  ",
"  .@@@@@@@@@.@@@@+. ",
" .+@@@@@@@@@@.@@@@. ",
" .+@@@@@@@@@@.@@@@. ",
".+@@@@@@@@@@@.@@@@+.",
".+@@@@@@@@@@@.@@@@@.",
".@@@@@@@@@@@@.@@@@@.",
".@@@@@@@@@@@@.@@@@@.",
"..@@@@@@@@@@@#@@@@..",
".@...@@@@@@@@@#@..@.",
" .@@@...########@@. ",
" .+@@@@@@@@@@@#@@@. ",
"  .@@@@@@@@@@#@@@+. ",
"  .+@@@@@@@@.@@@+.  ",
"   ..+@@@@@@.@@+.   ",
"     ..++@@.@@..    ",
"       .......      "};
