/* XPM */
const char * fileopen2_xpm[] = {
"20 20 20 1",
" 	c None",
".	c #000000",
"+	c #161600",
"@	c #FFFFFF",
"#	c #1E0D09",
"$	c #171713",
"%	c #171702",
"&	c #171715",
"*	c #171704",
"=	c #111100",
"-	c #181800",
";	c #040400",
">	c #171711",
",	c #C0C0C0",
"'	c #171708",
")	c #1A1A00",
"!	c #171700",
"~	c #17170D",
"{	c #1B1B00",
"]	c #080808",
"                    ",
"                    ",
"                    ",
"           ....   . ",
"               . .. ",
"                ... ",
" ...           .... ",
"+@@@#........       ",
"$@@@@@@@@@@@@.      ",
"%@@@@@@@@@@@@.      ",
"&@@@@@@@@@@@@.      ",
"*@@@@@@=----------;.",
">@@@@@#,,,,,,,,,,,=.",
"'@@@@),,,,,,,,,,,!. ",
"~@@@{,,,,,,,,,,,).  ",
"~@@),,,,,,,,,,,{.   ",
"]@!,,,,,,,,,,,).    ",
".=,,,,,,,,,,,!.     ",
".;----------=.      ",
"                    "};
