/* XPM */
const char * filetheta_xpm[] = {
"20 20 2 1",
" 	c None",
".	c #6C6C6C",
"       ......       ",
"     ..    .....    ",
"   ..       .  ..   ",
"  ..        .   ..  ",
"  .         ..   .. ",
" .           .    . ",
" .           .    . ",
".            .     .",
".            .     .",
".            .     .",
".            .     .",
"..           .    ..",
".....        . .....",
" .  ............  . ",
" .           .    . ",
"  .         ..   .. ",
"  ..        .   ..  ",
"   ..       .  ..   ",
"     ...   .....    ",
"       .......      "};
