/* XPM */
const char * ot_icon3_xpm[] = {
"32 32 167 2",
"  	c #1E0D08",
". 	c #1E0D09",
"+ 	c #1E0E08",
"@ 	c #1E0E09",
"# 	c #1E0E0B",
"$ 	c #200E0A",
"% 	c #200F0A",
"& 	c #1F120F",
"* 	c #1F1512",
"= 	c #1F1613",
"- 	c #261611",
"; 	c #261612",
"> 	c #201917",
", 	c #201918",
"' 	c #211D1A",
") 	c #221E1C",
"! 	c #2C1C18",
"~ 	c #2C1D18",
"{ 	c #2C1D19",
"] 	c #212120",
"^ 	c #222121",
"/ 	c #222323",
"( 	c #222526",
"_ 	c #32231F",
": 	c #222728",
"< 	c #332420",
"[ 	c #342421",
"} 	c #2D2725",
"| 	c #2A2C2C",
"1 	c #242E31",
"2 	c #262E31",
"3 	c #292E2E",
"4 	c #292E2F",
"5 	c #243033",
"6 	c #3A2B27",
"7 	c #243337",
"8 	c #3A2F2C",
"9 	c #25383C",
"0 	c #25383D",
"a 	c #40322E",
"b 	c #40322F",
"c 	c #40332F",
"d 	c #353839",
"e 	c #263E44",
"f 	c #274148",
"g 	c #463A36",
"h 	c #473A35",
"i 	c #473A36",
"j 	c #28454C",
"k 	c #4D3F3C",
"l 	c #284851",
"m 	c #464240",
"n 	c #4E403D",
"o 	c #504340",
"p 	c #294E57",
"q 	c #294F59",
"r 	c #314F57",
"s 	c #544744",
"t 	c #544844",
"u 	c #355057",
"v 	c #534C49",
"w 	c #2B5863",
"x 	c #335760",
"y 	c #39565F",
"z 	c #5B4F4B",
"A 	c #5B4F4C",
"B 	c #2C5C69",
"C 	c #2C5D6A",
"D 	c #5A5250",
"E 	c #2C5E6B",
"F 	c #4A575B",
"G 	c #495A5F",
"H 	c #615652",
"I 	c #625652",
"J 	c #625653",
"K 	c #2E6877",
"L 	c #396874",
"M 	c #685D5A",
"N 	c #2E6B7B",
"O 	c #2F6B7B",
"P 	c #346D7B",
"Q 	c #66615F",
"R 	c #426A73",
"S 	c #656363",
"T 	c #6E6461",
"U 	c #307384",
"V 	c #3D707D",
"W 	c #6F6461",
"X 	c #3A727F",
"Y 	c #4B6E76",
"Z 	c #3D727F",
"` 	c #586C71",
" .	c #6D6866",
"..	c #506F77",
"+.	c #30788A",
"@.	c #30788B",
"#.	c #557177",
"$.	c #756B68",
"%.	c #337B8D",
"&.	c #337B8E",
"*.	c #766B68",
"=.	c #756C68",
"-.	c #756C6A",
";.	c #4E767F",
">.	c #736D6C",
",.	c #657174",
"'.	c #477A87",
").	c #387E90",
"!.	c #407E8E",
"~.	c #62777D",
"{.	c #7C7270",
"].	c #6C7679",
"^.	c #6B777A",
"/.	c #33859A",
"(.	c #547F8A",
"_.	c #567F89",
":.	c #33889D",
"<.	c #74797A",
"[.	c #827977",
"}.	c #807B7A",
"|.	c #60858E",
"1.	c #778183",
"2.	c #408FA3",
"3.	c #3592AA",
"4.	c #3F92A7",
"5.	c #3595AD",
"6.	c #608B97",
"7.	c #5190A1",
"8.	c #3996AE",
"9.	c #698B93",
"0.	c #4D93A5",
"a.	c #3699B2",
"b.	c #5392A3",
"c.	c #3899B2",
"d.	c #5692A1",
"e.	c #369AB4",
"f.	c #4598AE",
"g.	c #5A97A6",
"h.	c #429EB5",
"i.	c #3F9FB8",
"j.	c #4C9CB0",
"k.	c #3EA1BB",
"l.	c #38A3BE",
"m.	c #43A1B9",
"n.	c #4AA0B6",
"o.	c #3BA4BF",
"p.	c #3EA4BE",
"q.	c #40A5BE",
"r.	c #39A8C4",
"s.	c #4FA3B8",
"t.	c #48A5BC",
"u.	c #41A7C1",
"v.	c #39A9C6",
"w.	c #39AAC6",
"x.	c #3FA9C4",
"y.	c #46A8C1",
"z.	c #3AABC7",
"A.	c #3BABC7",
"B.	c #39ACC9",
"C.	c #3AACCA",
"D.	c #3CACC9",
"E.	c #3DADC9",
"F.	c #3DAECA",
"G.	c #3EAECA",
"H.	c #3AAFCD",
"I.	c #3AB0CE",
"J.	c #3AB1CF",
"I.I.I.I.I.I.I.I.I.I.I.I.I.I.I.I.I.I.I.I.I.I.I.I.I.I.I.I.I.I.I.I.",
"I.I.I.I.I.I.I.I.I.I.I.I.I.I.I.I.I.I.I.I.I.I.I.I.I.I.I.I.I.I.I.I.",
"I.I.I.I.I.I.I.I.I.I.I.I.I.I.I.I.I.I.I.I.I.I.I.I.I.I.I.I.I.I.I.I.",
"I.I.I.I.I.I.I.I.I.I.I.I.I.I.I.I.I.I.I.I.I.I.I.I.I.I.I.I.I.I.I.I.",
"I.I.I.I.I.I.I.I.I.I.I.w.+.j ( & # , 7 B 5.I.I.I.I.I.I.I.I.I.I.I.",
"I.I.I.I.I.I.I.I.I.I.N ' . @   . . @ @ @   e e.I.I.I.I.I.I.I.I.I.",
"I.I.I.I.I.I.I.I.l.0   . . > f w C q 1 . @ . = U I.I.I.I.I.I.I.I.",
"I.I.I.I.I.I.I.l.: + + ^ @.B.I.I.I.I.I.a.p . . @ N I.I.I.I.I.I.I.",
"I.I.I.I.I.I.I.9 .   l r.I.I.I.I.I.I.I.I.I./.,   # :.I.I.I.I.I.I.",
"I.I.I.I.I.I.N . @ l I.I.I.I.I.I.I.I.I.I.I.I.3.* . ] v.I.I.I.I.I.",
"I.I.I.I.I.w.) % / r.I.I.I.I.I.I.I.I.I.I.I.I.I.O % $ K I.I.I.I.I.",
"I.I.I.I.I.%.; - &.I.I.I.I.I.I.I.I.I.I.I.I.I.I.I.4 ; 3 I.I.I.I.I.",
"I.I.I.I.I.r { } C.I.I.I.I.I.I.I.I.I.I.I.I.I.I.I.P ! ~ c.I.I.I.I.",
"I.I.I.I.I.d < u I.I.I.I.I.I.I.I.I.I.I.I.I.I.I.I.8.< < ).I.I.I.I.",
"I.I.I.I.I.8 6 L I.I.. . . . . . . . . . . . I.I.z.6 6 X I.I.I.I.",
"I.I.I.I.I.c b V I.I.. . . . . . . . . . . . I.I.H.a a Z I.I.I.I.",
"I.I.I.I.I.m g R I.I.. . . . . . . . . . . . I.I.o.i h !.I.I.I.I.",
"I.I.I.I.I.G n F I.I.I.I.I.I.E . . 5 I.I.I.I.I.I.2.n n 4.I.I.I.I.",
"I.I.I.I.I.'.s t k.I.I.I.I.I.E . . 5 I.I.I.I.I.I.Y s v A.I.I.I.I.",
"I.I.I.I.I.i.A z ;.I.I.I.I.I.E . . 5 I.I.I.I.I.p.D z ..I.I.I.I.I.",
"I.I.I.I.I.I.#.J H f.I.I.I.I.E . . 5 I.I.I.I.H.` J I h.I.I.I.I.I.",
"I.I.I.I.I.I.q.Q M S m.I.I.I.E . . 5 I.I.I.H._.M M (.I.I.I.I.I.I.",
"I.I.I.I.I.I.I.0.W W  .7.I.I.E . . 5 I.I.u.~.W T ,.D.I.I.I.I.I.I.",
"I.I.I.I.I.I.I.I.b.-.*.$.].d.x . . 2 j.|.>.$.=.^.x.I.I.I.I.I.I.I.",
"I.I.I.I.I.I.I.I.I.n.<.{.{.{.k . . _ {.{.{.{.6.E.I.I.I.I.I.I.I.I.",
"I.I.I.I.I.I.I.I.I.I.F.g.1.[.o . . [ [.}.9.t.I.I.I.I.I.I.I.I.I.I.",
"I.I.I.I.I.I.I.I.I.I.I.I.I.y.y . . | s.G.I.I.I.I.I.I.I.I.I.I.I.I.",
"I.I.I.I.I.I.I.I.I.I.I.I.I.I.E . . 5 I.I.I.I.I.I.I.I.I.I.I.I.I.I.",
"I.I.I.I.I.I.I.I.I.I.I.I.I.I.E . . 5 I.I.I.I.I.I.I.I.I.I.I.I.I.I.",
"I.I.I.I.I.I.I.I.I.I.I.I.I.I.I.I.I.I.J.I.I.I.I.I.I.I.I.I.I.I.I.I.",
"I.I.I.I.I.I.I.I.I.I.I.I.I.I.I.I.I.I.I.I.I.I.I.I.I.I.I.I.I.I.I.I.",
"I.I.I.I.I.I.I.I.I.I.I.I.I.I.I.I.I.I.I.I.I.I.I.I.I.I.I.I.I.I.I.I."};
