/* XPM */
static char * logo6c_32_xpm[] = {
"32 32 317 2",
"  	c #FFFFFF",
". 	c #F9F9F9",
"+ 	c #DADADA",
"@ 	c #DEDEDE",
"# 	c #FBFBFB",
"$ 	c #EDEDED",
"% 	c #909090",
"& 	c #454545",
"* 	c #3D3D3D",
"= 	c #474747",
"- 	c #949494",
"; 	c #F7F7F7",
"> 	c #A1A1A1",
", 	c #7F7F7F",
"' 	c #575757",
") 	c #5B5B5B",
"! 	c #6A6A6A",
"~ 	c #FDFDFD",
"{ 	c #B5B5B5",
"] 	c #8A8A8A",
"^ 	c #FAFAFA",
"/ 	c #E6E6E6",
"( 	c #404040",
"_ 	c #B7B7B7",
": 	c #FCFCFC",
"< 	c #CDCDCD",
"[ 	c #5C5C5C",
"} 	c #A5A5A5",
"| 	c #B9B9B9",
"1 	c #E8E8E8",
"2 	c #C9C9C9",
"3 	c #464646",
"4 	c #6D6D6D",
"5 	c #D7D7D7",
"6 	c #CCCCCC",
"7 	c #292929",
"8 	c #B2B2B2",
"9 	c #C2C2C2",
"0 	c #C5C5C5",
"a 	c #555555",
"b 	c #A9A9A9",
"c 	c #535353",
"d 	c #3E3E3E",
"e 	c #CBCBCB",
"f 	c #636363",
"g 	c #4D4D4D",
"h 	c #C8C8C8",
"i 	c #C0C0C0",
"j 	c #020202",
"k 	c #CFCFCF",
"l 	c #E1E1E1",
"m 	c #CECECE",
"n 	c #7C7C7C",
"o 	c #8D8D8D",
"p 	c #9A9A9A",
"q 	c #565656",
"r 	c #BCBCBC",
"s 	c #838383",
"t 	c #B4B4B4",
"u 	c #8B8B8B",
"v 	c #000000",
"w 	c #DCDCDC",
"x 	c #C6C6C6",
"y 	c #ECECEC",
"z 	c #D8D8D8",
"A 	c #5A5648",
"B 	c #C2AB46",
"C 	c #A8922B",
"D 	c #998E5D",
"E 	c #F5F5F5",
"F 	c #C4C4C4",
"G 	c #605B43",
"H 	c #EDC929",
"I 	c #F0C814",
"J 	c #EBC727",
"K 	c #9D8E49",
"L 	c #262626",
"M 	c #E3E3E3",
"N 	c #857326",
"O 	c #EEC614",
"P 	c #E4BD13",
"Q 	c #DBB513",
"R 	c #B19621",
"S 	c #444444",
"T 	c #C1C1C1",
"U 	c #050505",
"V 	c #B8B8B8",
"W 	c #6E6C63",
"X 	c #C8AC38",
"Y 	c #D3AE12",
"Z 	c #D5B013",
"` 	c #E3BD15",
" .	c #E0C85A",
"..	c #B1AC98",
"+.	c #505050",
"@.	c #9C9C9C",
"#.	c #686868",
"$.	c #9E9E9E",
"%.	c #D4D4D4",
"&.	c #D9D9D9",
"*.	c #C3C3C3",
"=.	c #7A7A7A",
"-.	c #CCC9BF",
";.	c #DFC860",
">.	c #E2C855",
",.	c #D2C89D",
"'.	c #F2F2F2",
").	c #666666",
"!.	c #414141",
"~.	c #3F3C3C",
"{.	c #B2A3A3",
"].	c #FEFEFE",
"^.	c #CACACA",
"/.	c #D1D1D1",
"(.	c #EBEBEB",
"_.	c #F8F8F8",
":.	c #4D3838",
"<.	c #CC1212",
"[.	c #FC0505",
"}.	c #DC3434",
"|.	c #B76D6D",
"1.	c #A3A1A1",
"2.	c #C7C7C7",
"3.	c #737373",
"4.	c #7E7E7E",
"5.	c #F3F3F3",
"6.	c #F8C8C8",
"7.	c #D03535",
"8.	c #A18D8D",
"9.	c #B47171",
"0.	c #F50F0F",
"a.	c #A65757",
"b.	c #9B9B9B",
"c.	c #ADADAD",
"d.	c #F4F4F4",
"e.	c #F29696",
"f.	c #D05353",
"g.	c #999999",
"h.	c #9A9797",
"i.	c #D34242",
"j.	c #E20000",
"k.	c #C40909",
"l.	c #6E6565",
"m.	c #EFEFEF",
"n.	c #424242",
"o.	c #4B4B4B",
"p.	c #F8F6F6",
"q.	c #F67272",
"r.	c #BC6767",
"s.	c #9E9191",
"t.	c #DB3131",
"u.	c #DA0000",
"v.	c #CD0000",
"w.	c #CE0303",
"x.	c #D49D9D",
"y.	c #F9E4E4",
"z.	c #FD3E3E",
"A.	c #C05F5F",
"B.	c #A78484",
"C.	c #E61A1A",
"D.	c #D40000",
"E.	c #D10A0A",
"F.	c #F3ADAD",
"G.	c #F9C9C9",
"H.	c #EA2B2B",
"I.	c #B23333",
"J.	c #EE1010",
"K.	c #E22B2B",
"L.	c #B37373",
"M.	c #B07676",
"N.	c #E80F0F",
"O.	c #D00000",
"P.	c #C20606",
"Q.	c #7A5050",
"R.	c #868686",
"S.	c #F6A2A2",
"T.	c #C63C3C",
"U.	c #DC1717",
"V.	c #D02F2F",
"W.	c #985656",
"X.	c #D41D1D",
"Y.	c #FF0000",
"Z.	c #E80303",
"`.	c #CE0000",
" +	c #B70F0F",
".+	c #4D3737",
"++	c #E0E0E0",
"@+	c #757575",
"#+	c #AFAFAF",
"$+	c #F67171",
"%+	c #C23838",
"&+	c #E31212",
"*+	c #BF3232",
"=+	c #FE0000",
"-+	c #A21414",
";+	c #423B3B",
">+	c #AEAEAE",
",+	c #4A4A4A",
"'+	c #BFBFBF",
")+	c #EC4949",
"!+	c #DF2727",
"~+	c #C27373",
"{+	c #DD1616",
"]+	c #E01414",
"^+	c #B93737",
"/+	c #ED0A0A",
"(+	c #C90707",
"_+	c #891D1D",
":+	c #A31212",
"<+	c #832121",
"[+	c #A2A2A2",
"}+	c #E4E3E1",
"|+	c #86762C",
"1+	c #7C6F38",
"2+	c #CBA0A0",
"3+	c #F72323",
"4+	c #B95353",
"5+	c #B43A3A",
"6+	c #F40707",
"7+	c #C93B3B",
"8+	c #BA4A4A",
"9+	c #F80000",
"0+	c #543333",
"a+	c #B3B3B3",
"b+	c #F8E798",
"c+	c #EEC714",
"d+	c #8E783B",
"e+	c #976464",
"f+	c #9D5D5D",
"g+	c #D71B1B",
"h+	c #916D6D",
"i+	c #D11F1F",
"j+	c #F20000",
"k+	c #4E3636",
"l+	c #484848",
"m+	c #6A6032",
"n+	c #EEE0A1",
"o+	c #FDF7DE",
"p+	c #F9E79A",
"q+	c #F0CA1B",
"r+	c #E9C216",
"s+	c #5A553D",
"t+	c #887777",
"u+	c #BD3636",
"v+	c #FC0202",
"w+	c #EA0000",
"x+	c #D82D2D",
"y+	c #E3C8C8",
"z+	c #A3A3A3",
"A+	c #7D7551",
"B+	c #938029",
"C+	c #81722F",
"D+	c #40403E",
"E+	c #6C6132",
"F+	c #E5C016",
"G+	c #F6DD70",
"H+	c #F8E48C",
"I+	c #B99D21",
"J+	c #962525",
"K+	c #E10202",
"L+	c #DE4A4A",
"M+	c #F7ECEC",
"N+	c #E9E9E9",
"O+	c #DCC86E",
"P+	c #F1CC27",
"Q+	c #FDF9E5",
"R+	c #F7E180",
"S+	c #766930",
"T+	c #C92323",
"U+	c #E57070",
"V+	c #CEB95F",
"W+	c #F2D13A",
"X+	c #FCF5D5",
"Y+	c #F8E48A",
"Z+	c #E0BB17",
"`+	c #B1836D",
" @	c #C71919",
".@	c #EC9797",
"+@	c #8E8E8E",
"@@	c #988428",
"#@	c #F1CB20",
"$@	c #DBC150",
"%@	c #E7E4E4",
"&@	c #EEEEEE",
"*@	c #606060",
"=@	c #AA9224",
"-@	c #F1CC24",
";@	c #FAECAF",
">@	c #F6DC6B",
",@	c #EBC415",
"'@	c #47453E",
")@	c #4C4C4C",
"!@	c #C5A71E",
"~@	c #EBC51A",
"{@	c #FEFCF1",
"]@	c #FFFDF8",
"^@	c #FAEEB8",
"/@	c #F5E083",
"(@	c #E1C442",
"_@	c #E7C116",
":@	c #5F5D54",
"<@	c #7B7B7B",
"[@	c #BA9F24",
"}@	c #E6C537",
"|@	c #ECE7D0",
"1@	c #F1F1EF",
"2@	c #DFD8BA",
"3@	c #D8C15C",
"4@	c #DBB81B",
"5@	c #C9AB22",
"6@	c #CDC59F",
"7@	c #A8A289",
"8@	c #C7A81D",
"9@	c #D7B51A",
"0@	c #BBA64F",
"a@	c #EEEDEA",
"b@	c #F1F1F1",
"                          . + @ #                       $       ",
"                      . % & * * = - ;                 ; >       ",
"                      , * * * * ' ) ! ~               { ] ^     ",
"                    / * * * * * ( * * _           : < [ } | 1   ",
"                    2 * * * * * ( 3 * 4           5 6 7 8 9 9 ^ ",
"                    0 a b c d > e f * g           h i j 8 k 6 l ",
"                    m n o p q r s t * *           < u v 8 w x y ",
"                    z 4 A B C D 3 | * * #         y c v 8 E F   ",
"                    1 G H I I I J K * * l           L v > / M   ",
"                    y N O I I P Q R S d T         M v U V   /   ",
"                    ; W X Y Z `  ...+.@.#.        $.* %.^ / &.  ",
"                    *.=.-.;.>.,.l '.).!.~.{.i / ].@         $ : ",
"                  y g 0 $ ^./.(._._.x :.<.[.}.|.1.2.'.          ",
"                ~ 3.4._._.5._._._._.6.7.8.9.}.[.0.a.b.          ",
"                @.* c.y ; M d._.1 e.f.p g.g.h.i.j.k.l.'.        ",
"              m.n.o.&.E _.'._.p.q.r.g.g.g.s.t.u.v.w.x.          ",
"              { & b._._._._.y.z.A.g.g.g.B.C.D.v.E.F.            ",
"              ! +.(._._._.G.H.I.J.K.L.M.N.O.v.P.Q.              ",
"            @ * R._._._.S.T.U.V.W.X.Y.Z.`.v. +.+* ++            ",
"            @+S #+_.p.$+X.%+&+*+N.=+j.v.v.-+;+* * >+            ",
"          w * ,+'+y.)+!+~+{+]+^+/+(+_+:+<+~.* * * [+            ",
"          }+|+1+2+3+4+5+6+7+8+9+D.0+* * * * * d * a+            ",
"          b+I c+d+e+f+g+h+i+j+O.v.k+* * * * l+d m+n+            ",
"      o+p+q+I I r+s+t+u+v+w+`.v.x+y+z+A+B+C+D+E+F+G+            ",
"    H+I I I I I I I+* J+K+v.v.L+M+_.N+O+I I I I I P+Q+          ",
"    R+I I I I I I I S+* T+`.U+p._._.m.V+I I I I I I W+X+        ",
"    Y+I I I I I I I Z+`+ @.@_._._.d.+@@@I I I I I I I #@        ",
"    R+I I I I I I I I $@%@_._.&@'+*@* =@I I I I I I -@;@        ",
"    >@I I I I I I I I ,@'@c )@* * * * !@I I I I ~@Y+{@          ",
"    ]@^@/@(@_@I I I I F+:@<@u u u u =.[@I I I }@|@              ",
"            1@2@3@4@5@6@#             7@8@9@0@a@                ",
"                  E E                   b@m.                    "};
