/* XPM */
const char * logo6c_64_xpm[] = {
"64 64 413 2",
"  	c None",
". 	c #FFFFFF",
"+ 	c #E8E8E8",
"@ 	c #B9B9B9",
"# 	c #B1B1B1",
"$ 	c #C9C9C9",
"% 	c #EFEFEF",
"& 	c #B8B8B8",
"* 	c #F7F7F7",
"= 	c #5C5C5C",
"- 	c #3D3D3D",
"; 	c #646464",
"> 	c #AAAAAA",
", 	c #525252",
"' 	c #5B5A5A",
") 	c #6C6C6C",
"! 	c #E0E0E0",
"~ 	c #D6D6D6",
"{ 	c #545454",
"] 	c #535353",
"^ 	c #595959",
"/ 	c #454545",
"( 	c #D0D0D0",
"_ 	c #A3A3A3",
": 	c #666666",
"< 	c #CCCCCC",
"[ 	c #838383",
"} 	c #909090",
"| 	c #9A9A9A",
"1 	c #EBEBEB",
"2 	c #474747",
"3 	c #484848",
"4 	c #3E3E3E",
"5 	c #F5F5F5",
"6 	c #BCBCBC",
"7 	c #B6B6B6",
"8 	c #101010",
"9 	c #C8C8C8",
"0 	c #ABABAB",
"a 	c #000000",
"b 	c #A5A5A5",
"c 	c #6A6A6A",
"d 	c #8B8B8B",
"e 	c #606060",
"f 	c #393939",
"g 	c #BEBEBE",
"h 	c #434344",
"i 	c #858585",
"j 	c #808080",
"k 	c #4E4E4E",
"l 	c #A7A7A7",
"m 	c #B7B7B7",
"n 	c #434343",
"o 	c #C6C6C6",
"p 	c #080808",
"q 	c #CACACA",
"r 	c #959595",
"s 	c #D2D2D2",
"t 	c #848484",
"u 	c #B5B5B5",
"v 	c #D9D9D9",
"w 	c #DCDCDC",
"x 	c #D1D1D1",
"y 	c #B2B2B2",
"z 	c #C2C2C2",
"A 	c #9B9B9B",
"B 	c #D5D5D5",
"C 	c #949494",
"D 	c #C7C7C7",
"E 	c #6A6A6B",
"F 	c #E4E4E4",
"G 	c #CECECE",
"H 	c #C4C4C4",
"I 	c #626262",
"J 	c #B4B4B4",
"K 	c #F6F6F6",
"L 	c #757575",
"M 	c #EEEEEE",
"N 	c #515151",
"O 	c #494949",
"P 	c #969696",
"Q 	c #313131",
"R 	c #C0C0C0",
"S 	c #989898",
"T 	c #585858",
"U 	c #C2BEAE",
"V 	c #6C6440",
"W 	c #615935",
"X 	c #615E4F",
"Y 	c #A2A2A2",
"Z 	c #A1A1A1",
"` 	c #5B5B5B",
" .	c #766930",
"..	c #E9C216",
"+.	c #F0C814",
"@.	c #CBAE2C",
"#.	c #7C6D2C",
"$.	c #878787",
"%.	c #E4CE69",
"&.	c #DBB719",
"*.	c #F1D65B",
"=.	c #CAC29E",
"-.	c #D8D8D8",
";.	c #707070",
">.	c #9A8528",
",.	c #EFC919",
"'.	c #7D6F2E",
").	c #AFADAD",
"!.	c #292929",
"~.	c #524E38",
"{.	c #E8C114",
"].	c #C6A312",
"^.	c #DFB913",
"/.	c #85752D",
"(.	c #434139",
"_.	c #907512",
":.	c #E9C213",
"<.	c #C9A511",
"[.	c #CEAA12",
"}.	c #70642F",
"|.	c #5A5A5A",
"1.	c #141414",
"2.	c #999999",
"3.	c #938B67",
"4.	c #AB8C18",
"5.	c #BE9B11",
"6.	c #B59411",
"7.	c #BF9C11",
"8.	c #EBC82A",
"9.	c #DAC879",
"0.	c #BDBDBD",
"a.	c #ACACAC",
"b.	c #D2C89D",
"c.	c #E6C11B",
"d.	c #EEC81B",
"e.	c #DDC86A",
"f.	c #CAC8C1",
"g.	c #1F1F1F",
"h.	c #EDC822",
"i.	c #E6C83F",
"j.	c #D0C8A4",
"k.	c #E4E4E5",
"l.	c #F8F8F8",
"m.	c #DFDFDF",
"n.	c #C1C1C1",
"o.	c #DEDEDE",
"p.	c #8F8F8F",
"q.	c #CDCDCD",
"r.	c #CBC8BA",
"s.	c #D5C88E",
"t.	c #D8C880",
"u.	c #CEC8AB",
"v.	c #E0DFE0",
"w.	c #BABABA",
"x.	c #453B3B",
"y.	c #945757",
"z.	c #FBFBFB",
"A.	c #737373",
"B.	c #F2F2F2",
"C.	c #D4D4D4",
"D.	c #D3D3D3",
"E.	c #6B6B6B",
"F.	c #5C3333",
"G.	c #E80707",
"H.	c #FF0000",
"I.	c #F31212",
"J.	c #CE4949",
"K.	c #A58787",
"L.	c #9D9D9D",
"M.	c #E2E2E2",
"N.	c #CFCFCF",
"O.	c #CBCBCB",
"P.	c #BEBEBF",
"Q.	c #7B2929",
"R.	c #F70202",
"S.	c #F70C0C",
"T.	c #E72525",
"U.	c #C25C5C",
"V.	c #9D9393",
"W.	c #E6E6E6",
"X.	c #B12D2D",
"Y.	c #FB0606",
"Z.	c #B66E6E",
"`.	c #BA6868",
" +	c #E22B2B",
".+	c #DA3737",
"++	c #B17474",
"@+	c #DDDDDD",
"#+	c #F8EEEE",
"$+	c #FD4545",
"%+	c #EF1818",
"&+	c #E70606",
"*+	c #765656",
"=+	c #ADADAD",
"-+	c #7F7F7F",
";+	c #DBDBDB",
">+	c #F8D0D0",
",+	c #FE2727",
"'+	c #DE3B3B",
")+	c #DE3131",
"!+	c #E10000",
"~+	c #CD0000",
"{+	c #A82525",
"]+	c #747474",
"^+	c #929292",
"/+	c #EAEAEA",
"(+	c #E7E7E7",
"_+	c #E1E1E1",
":+	c #DB8A8A",
"<+	c #FD0808",
"[+	c #CA5050",
"}+	c #D63D3D",
"|+	c #FD0000",
"1+	c #D90000",
"2+	c #4D4D4D",
"3+	c #3E3E3F",
"4+	c #ECECEC",
"5+	c #F67171",
"6+	c #FA1010",
"7+	c #A18D8D",
"8+	c #F90000",
"9+	c #D30000",
"0+	c #D7D7D7",
"a+	c #AD7A7A",
"b+	c #F30000",
"c+	c #CF0000",
"d+	c #D30A0A",
"e+	c #F39999",
"f+	c #C5C5C5",
"g+	c #F9D0D0",
"h+	c #FE1E1E",
"i+	c #BE6262",
"j+	c #EB0000",
"k+	c #D71414",
"l+	c #F9C2C2",
"m+	c #717171",
"n+	c #FAA9A9",
"o+	c #FF0A0A",
"p+	c #A98181",
"q+	c #D24343",
"r+	c #DD2929",
"s+	c #FDE0E0",
"t+	c #C3C3C3",
"u+	c #FC7777",
"v+	c #DA1818",
"w+	c #F30808",
"x+	c #AF1111",
"y+	c #AA9F9F",
"z+	c #AF3535",
"A+	c #974545",
"B+	c #CE3535",
"C+	c #ED0C0C",
"D+	c #CF0404",
"E+	c #9D1818",
"F+	c #F90404",
"G+	c #BC2D2D",
"H+	c #7E5656",
"I+	c #F94141",
"J+	c #F94B4B",
"K+	c #A93939",
"L+	c #D10000",
"M+	c #7F2525",
"N+	c #E9E9E9",
"O+	c #EC1616",
"P+	c #975A5A",
"Q+	c #8B7676",
"R+	c #CE2121",
"S+	c #855252",
"T+	c #B63131",
"U+	c #CD0202",
"V+	c #713939",
"W+	c #E01414",
"X+	c #7E7E7E",
"Y+	c #C40707",
"Z+	c #523636",
"`+	c #787878",
" @	c #E71010",
".@	c #8B6C6C",
"+@	c #C82525",
"@@	c #B20F0F",
"#@	c #7A7A7A",
"$@	c #A38585",
"%@	c #8D8D8D",
"&@	c #D41D1D",
"*@	c #7E7474",
"=@	c #C22929",
"-@	c #FBA9A9",
";@	c #CC4747",
">@	c #881D1D",
",@	c #433B3B",
"'@	c #493838",
")@	c #7C2222",
"!@	c #772525",
"~@	c #642E2E",
"{@	c #44433B",
"]@	c #A35C5C",
"^@	c #B63B3B",
"/@	c #919191",
"(@	c #979797",
"_@	c #8E1B1B",
":@	c #DFDED7",
"<@	c #A28B26",
"[@	c #E9C215",
"}@	c #685E33",
"|@	c #FB4D4D",
"1@	c #AF4949",
"2@	c #A33D3D",
"3@	c #E01F1F",
"4@	c #C24747",
"5@	c #F7E07B",
"6@	c #8C6D6D",
"7@	c #EA2828",
"8@	c #8B5858",
"9@	c #725E5E",
"0@	c #9D4141",
"a@	c #5A5336",
"b@	c #CDC398",
"c@	c #FCF4D0",
"d@	c #B64545",
"e@	c #857A7A",
"f@	c #464339",
"g@	c #CDAD1A",
"h@	c #EFC814",
"i@	c #FDF6D9",
"j@	c #F2CF30",
"k@	c #D3B21B",
"l@	c #914949",
"m@	c #ED8181",
"n@	c #444444",
"o@	c #4B483A",
"p@	c #C6A71C",
"q@	c #FAEBAA",
"r@	c #F6DE72",
"s@	c #F1CA1D",
"t@	c #3F3F3F",
"u@	c #A55E5E",
"v@	c #F2A9A9",
"w@	c #CCAC1C",
"x@	c #FBF2C7",
"y@	c #FEFDF6",
"z@	c #F4D756",
"A@	c #A21D1D",
"B@	c #D81E1E",
"C@	c #F5C6C6",
"D@	c #DADADA",
"E@	c #F5DA60",
"F@	c #BEA11F",
"G@	c #783B3B",
"H@	c #D90808",
"I@	c #DE3232",
"J@	c #F7DADA",
"K@	c #F8E798",
"L@	c #CE5353",
"M@	c #E54F4F",
"N@	c #E3E3E3",
"O@	c #F1CA1E",
"P@	c #F9E9A1",
"Q@	c #BB3737",
"R@	c #EC7777",
"S@	c #8E8C8A",
"T@	c #F6DC69",
"U@	c #FEFBEC",
"V@	c #AE9420",
"W@	c #785C5C",
"X@	c #882F2F",
"Y@	c #C70000",
"Z@	c #F19F9F",
"`@	c #F3D039",
" #	c #F4E18B",
".#	c #D19F9F",
"+#	c #AB2828",
"@#	c #DB3C3C",
"##	c #F4BCBC",
"$#	c #797979",
"%#	c #45433B",
"&#	c #F0CA1D",
"*#	c #EBE6D0",
"=#	c #EFE4E4",
"-#	c #4B4B4B",
";#	c #A28F3E",
">#	c #656565",
",#	c #6F6F6F",
"'#	c #8C7A2B",
")#	c #A89024",
"!#	c #DCBC2C",
"~#	c #FBF0BD",
"{#	c #FDF8E3",
"]#	c #F8E58E",
"^#	c #F1CC27",
"/#	c #ECC414",
"(#	c #C4AD53",
"_#	c #F5EED2",
":#	c #DBCE95",
"<#	c #C8B24D",
"[#	c #C5A71E",
"}#	c #6E6642",
"|#	c #E3BE17",
"1#	c #D8CC9E",
"2#	c #D0CEC7",
"3#	c #C5BD99",
"4#	c #BAA750",
"5#	c #BFA11D",
"6#	c #BFBAA5",
"7#	c #A18B26",
"8#	c #BB9D1D",
"9#	c #BDB7AB",
"0#	c #D8D6CF",
"a#	c #BCAF76",
"b#	c #BEA329",
"c#	c #86793F",
"d#	c #B09623",
"e#	c #82754C",
"f#	c #C1C0BF",
". . . . . . . . . . . . . . . . . . . . . . . . . . . . . . . . . . . . . . . . . . . . . . . . . . . . . . . . . . . . . . . . ",
". . . . . . . . . . . . . . . . . . . . . . . . . . . + @ # # $ % . . . . . . . . . . . . . . . . . . . . . . . & . . . . . . . ",
". . . . . . . . . . . . . . . . . . . . . . . . * # = - - - - - - ; > . . . . . . . . . . . . . . . . . . . . . , . . . . . . . ",
". . . . . . . . . . . . . . . . . . . . . . . + ' - - - - - - - - - - ) ! . . . . . . . . . . . . . . . . . . ! = ~ . . . . . . ",
". . . . . . . . . . . . . . . . . . . . . . + { - - - - - - - - - ] ^ - / ( . . . . . . . . . . . . . . . . . _ : < . . . . . . ",
". . . . . . . . . . . . . . . . . . . . . . [ - - - - - - - - - - } | - - { * . . . . . . . . . . . . . . . 1 2 , _ 1 . . . . . ",
". . . . . . . . . . . . . . . . . . . . . + - - - - - - - - - - - 3 4 - - - > . . . . . . . . . . . . . 5 6 7 8 : 9 7 6 5 . . . ",
". . . . . . . . . . . . . . . . . . . . . # - - - - - - - - - - - - - - - - / % . . . . . . . . . . . 5 & < 0 a : . b < & 5 . . ",
". . . . . . . . . . . . . . . . . . . . . | - - - - - - - - - - - - - - - - - # . . . . . . . . . . . 6 < < c a : . # < < 6 . . ",
". . . . . . . . . . . . . . . . . . . . . d - - - - - - - - - - - 3 e - - - - d . . . . . . . . . . 1 7 < < f a : . g < < 7 1 . ",
". . . . . . . . . . . . . . . . . . . . . d - h i j k - - - k l 9 m ^ n - - - ; . . . . . . . . . . o < < < p a : . q < < < o . ",
". . . . . . . . . . . . . . . . . . . . . d - r < s t - - n u v w x y - - - - { . . . . . . . . . . z < < A a a : . . b < < z . ",
". . . . . . . . . . . . . . . . . . . . . d - B C D ~ n - E F G d H + : - - - - . . . . . . . . . . o < < I a a : . . J < < o . ",
". . . . . . . . . . . . . . . . . . . . . # - _ 3 } K ^ - L M N O L M P - - - - . . . . . . . . . . 1 7 < Q a a : . . R < 7 1 . ",
". . . . . . . . . . . . . . . . . . . . . # - S - T U V W X ! - - - D Y - - - - . . . . . . . . . . . 6 H a a a : . . ~ H 6 . . ",
". . . . . . . . . . . . . . . . . . . . . # - Z `  ...+.+.+.@.#.- I 1 } - - - - % . . . . . . . . . . 5 $.a a a : . . . A 5 . . ",
". . . . . . . . . . . . . . . . . . . . . $ - ) %.+.+.+.+.+.+.+.&.*.=.- - - - - -.. . . . . . . . . . . ;.a a a : . ! < z . . . ",
". . . . . . . . . . . . . . . . . . . . . -.- >.+.+.+.+.+.+.+.+.+.+.,.'.- - - - ).. . . . . . . . . . . !.a a a , < 1 . < . . . ",
". . . . . . . . . . . . . . . . . . . . . -.~.+.+.+.+.+.+.+.+.+.{.].^./.- - - - > . . . . . . . . . . 1 a a a a : . . . ! 1 . . ",
". . . . . . . . . . . . . . . . . . . . . -.(._.:.+.+.+.+.+.{.<.[.+.+.}.- |.n - = . . . . . . . . . . _ a a a 1.2.! . . . < . . ",
". . . . . . . . . . . . . . . . . . . . . ! - 3.4.5.{.[.5.6.7.+.+.8.9.L - j 0.e - $ . . . . . . . . . = a a : 1 . 1 < 1 . < . . ",
". . . . . . . . . . . . . . . . . . . . . . - a.b.c.].[.+.+.+.d.e.f.9 a.- 3 m A - = . . . . . . . . . g.!.< . . . . . ! < < . . ",
". . . . . . . . . . . . . . . . . . . . . $ - a.9 b.h.+.+.+.i.j.9 k.l.m.; - n 3 - - n.o.~ * . . . . 1 p.. . . . . . . . . & 5 . ",
". . . . . . . . . . . . . . . . . . . . % { - n.q.9 r.s.t.u.9 9 v.l.l.l.w.- - - - x.y.r 2.2.w.o.z.. . . . . . . . . . . . . . . ",
". . . . . . . . . . . . . . . . . . . . A.- |.B.5 C.9 9 9 9 D.1 l.l.l.l.l.E.- - F.G.H.I.J.K.2.2.L.w.M.. . . . . . . . . . . . . ",
". . . . . . . . . . . . . . . . . . . # - 3 x l.l.B.N.9 O.+ l.l.l.l.l.l.l.P.- Q.R.S.H.H.H.H.T.U.V.2.2.Z < . . . . . . . . . . . ",
". . . . . . . . . . . . . . . . . . + - - P l.l.l.l.5 W.l.l.l.l.l.l.l.l.l.B.X.Y.Z.V.`. +H.H.H.H.Y..+++d ) 1 . . . . . . . . . . ",
". . . . . . . . . . . . . . . . . * ) - 3 @+l.l.l.l.l.l.l.l.l.l.l.l.l.l.#+$+%+K.2.2.2.2.K.J.I.H.H.H.&+*+: =+. . . . . . . . . . ",
". . . . . . . . . . . . . . . . . d - - -+;+l.l.l.l.* M l.l.l.l.l.l.l.>+,+'+L.2.2.2.2.2.2.2.2.)+H.!+~+{+: ]+z.. . . . . . . . . ",
". . . . . . . . . . . . . . . . > - - - ^+9 ~ /+l.5 -.( (+l.l.l._+G :+<+[+2.2.2.2.2.2.2.2.V.}+|+1+~+~+~+*+: ( . . . . . . . . . ",
". . . . . . . . . . . . . . . * 2+- - 3+z D.4+* l.l.W.B.l.l.l.l.l.5+6+Z.2.2.2.2.2.2.2.2.7+T.8+9+~+~+~+~+{+& . . . . . . . . . . ",
". . . . . . . . . . . . . . . $ - n - L 0+l.l.l.l.l.l.l.l.l.l.#+$+%+K.2.2.2.2.2.2.2.2.a+I.b+c+~+~+~+~+d+e+. . . . . . . . . . . ",
". . . . . . . . . . . . . . . ^+- ] - f+l.l.l.l.l.l.l.l.l.l.g+h+)+V.2.2.2.2.2.2.2.2.i+Y.j+~+~+~+~+~+k+l+. . . . . . . . . . . . ",
". . . . . . . . . . . . . . * 2+3 - m+l.l.l.l.l.l.l.l.l.l.n+o+H..+p+2.2.2.2.2.2.2.q+H.!+~+~+~+~+~+r+s+. . . . . . . . . . . . . ",
". . . . . . . . . . . . . . @ - ^ - t+l.l.l.l.l.l.l.l.l.u+H.v+w+H.H..+++2.2.2.V..+|+1+~+~+~+~+~+x+y+. . . . . . . . . . . . . . ",
". . . . . . . . . . . . . . A.- k ` l.l.l.l.l.l.l.l.#+$+H.z+: A+B+C+H.H.T.++K.T.8+D+~+~+~+~+c+E+- { . . . . . . . . . . . . . . ",
". . . . . . . . . . . . . + - - - J l.l.l.l.l.l.l.g+h+F+H.G+H+I+J+H+K+w+H.H.S.b+c+~+~+~+~+L+M+- - - ! . . . . . . . . . . . . . ",
". . . . . . . . . . . . . ^+- - - N+l.l.l.l.l.l.n+O+P+Q+G+F+F+R+S+: T+H.H.H.j+~+~+~+~+~+U+V+- - - - Y . . . . . . . . . . . . . ",
". . . . . . . . . . . . + / - - ] l.l.l.l.l.l.u+H.W+P+X+T+H.w+H.F+W+H.H.H.!+~+~+~+~+~+Y+Z+- - - - - ) . . . . . . . . . . . . . ",
". . . . . . . . . . . . ) - n ] `+l.l.l.l.#+$+ @A+v+H.w+H.v+.@H++@H.H.|+1+~+~+~+~+~+@@x.- - - - - - 2+. . . . . . . . . . . . . ",
". . . . . . . . . . . n.- - - , #@l.l.l.g+h+F+$@G %@&@H.H.R+H+*@=@H.8+9+~+~+~+~+~+E+x.- - - - - - - - . . . . . . . . . . . . . ",
". . . . . . . . . . . # - - - ` ^+l.l.-@o+G+ @F+;@ +F+K+G+F+H. @H.b+c+>@,@'@)@!@~@- - - - - - - - - 2+. . . . . . . . . . . . . ",
". . . . . . . . . . . # - ~.{@` 0 l.u+H.]@L.`+G+H.H.^@/@(@A+H.H.j+~+_@- - - - - - - - - - - - - - - ; . . . . . . . . . . . . . ",
". . . . . . . . . . . :@<@..[@}@} |@H.W+w+1@2@F+C+ @H.3@4@F+H.!+~+~+'@- - - - - - - - - - - n - - - ) . . . . . . . . . . . . . ",
". . . . . . . . . . . 5@+.+.+...}@6@7@*@8@W+H.v+9@(@0@w+H.|+1+~+~+~+,@- - - - - - - - - - ^ n - - a@b@. . . . . . . . . . . . . ",
". . . . . . . . . . c@+.+.+.+.+...a@e C /@`+0@ @d@e@T+H.8+9+~+~+~+~+)@- - - - - - - - - k - - - f@g@h@i@. . . . . . . . . . . . ",
". . . . . . . . . i@j@+.+.+.+.+.+.k@- ] A _ X+l@H.w+H.b+c+~+~+~+~+c+m@=+m+n@- - - o@~.n n - - {@p@+.+.c@. . . . . . . . . . . . ",
". . . . . . c@q@r@s@+.+.+.+.+.+.+.+.>.- t@u@ @H.H.H.j+~+~+~+~+~+d+v@l.l.l.m.a.w@k@+.../.{@- W w@+.+.+.x@. . . . . . . . . . . . ",
". . . . y@z@+.+.+.+.+.+.+.+.+.+.+.+...o@- - A@H.H.!+~+~+~+~+~+B@C@l.l.l.l.D@9 +.+.+.+.+.+.+.+.+.+.+.+.E@. . . . . . . . . . . . ",
". . . . c@+.+.+.+.+.+.+.+.+.+.+.+.+.+.F@- - - G@H@~+~+~+~+~+I@J@l.l.l.l.l.;+9 +.+.+.+.+.+.+.+.+.+.+.+.+.K@. . . . . . . . . . . ",
". . . . i@+.+.+.+.+.+.+.+.+.+.+.+.+.+.+. .- - - L@~+~+~+~+M@#+l.l.l.l.l.l.N@9 +.+.+.+.+.+.+.+.+.+.+.+.+.O@P@. . . . . . . . . . ",
". . . . . +.+.+.+.+.+.+.+.+.+.+.+.+.+.+.&.o@- 4 Q@~+~+c+R@l.l.l.l.l.l.l.l.(+S@+.+.+.+.+.+.+.+.+.+.+.+.+.+.+.T@U@. . . . . . . . ",
". . . . . +.+.+.+.+.+.+.+.+.+.+.+.+.+.+.+.V@W@X@Y@~+d+Z@l.l.l.l.l.l.l.l.l.d - +.+.+.+.+.+.+.+.+.+.+.+.+.+.+.+.`@. . . . . . . . ",
". . . . . +.+.+.+.+.+.+.+.+.+.+.+.+.+.+.+.+. #.#+#@###l.l.l.l.l.l.l.l.+ $#- %#+.+.+.+.+.+.+.+.+.+.+.+.+.+.+.+.s@. . . . . . . . ",
". . . . . +.+.+.+.+.+.+.+.+.+.+.+.+.+.+.+.+.&#*#l.=#l.l.l.l.l.l.l.* @ -#- - W +.+.+.+.+.+.+.+.+.+.+.+.+.+.+.s@x@. . . . . . . . ",
". . . . i@+.+.+.+.+.+.+.+.+.+.+.+.+.+.+.+.+.+.;#0.* l.l.l.l.5 D.> >#- - - - }@+.+.+.+.+.+.+.+.+.+.+.+.+.+.z@i@. . . . . . . . . ",
". . . . P@+.+.+.+.+.+.+.+.+.+.+.+.+.+.+.+.+.+.&.- 3 ; ,#; ] - - - - - - - - '#+.+.+.+.+.+.+.+.+.+.+.+.z@x@. . . . . . . . . . . ",
". . . . i@s@+.+.+.+.+.+.+.+.+.+.+.+.+.+.+.+.+.+.a@- - - - - - - - - - - - - )#+.+.+.+.+.+.+.+.+.+.!#~#. . . . . . . . . . . . . ",
". . . . . {#]#z@^#+.+.+.+.+.+.+.+.+.+.+.+.+.+.+.W - - - - - - - - - - - - - >.+.+.+.+.+.+.+.+./#(#% . . . . . . . . . . . . . . ",
". . . . . . . . . _#:#<#w@+.+.+.+.+.+.+.+.+.+.[#{ d # n.-.-.-.-.-.-.-.-.$ l }#+.+.+.+.+.+.+.|#1#. . . . . . . . . . . . . . . . ",
". . . . . . . . . . . . * 2#3#4#&.+.+.+.+.+.5#6#% . . . . . . . . . . . . . [ 7#+.+.+.+.+.8#9#. . . . . . . . . . . . . . . . . ",
". . . . . . . . . . . . . . . . 0#a#b#w@F@c#@ . . . . . . . . . . . . . . . * [ '.F@w@d#e#f#. . . . . . . . . . . . . . . . . . ",
". . . . . . . . . . . . . . . . . . . -.-.. . . . . . . . . . . . . . . . . . . % -.-.+ . . . . . . . . . . . . . . . . . . . . ",
". . . . . . . . . . . . . . . . . . . . . . . . . . . . . . . . . . . . . . . . . . . . . . . . . . . . . . . . . . . . . . . . "};
